<svg xmlns="http://www.w3.org/2000/svg" width="446" height="90" viewBox="0 0 446 90">
  <title>Acetate horizontal lockup</title>
  <defs>
    <path id="sightline" fill-rule="evenodd" d="M0 0H86V100H0Z M2 58L14 52H72L84 58Z"/>
    <g id="acetate-wordmark"><path id="open-a" d="M17 0L330 698H349L650 0H544L345 680L91 0Z"/>
    <g transform="translate(774 0)"><path d="M615 39Q606 31 586.5 21.5Q567 12 539.5 4.5Q512 -3 478 -9Q444 -15 407 -15Q328 -15 261 7.5Q194 30 145.5 76Q97 122 69.5 188.5Q42 255 42 340Q42 425 69.5 491.5Q97 558 146.5 604Q196 650 265 674Q334 698 417 698Q483 698 537.5 684.5Q592 671 634 652Q626 638 621 614Q616 590 613 574L607 572Q597 584 579 599Q561 614 537 628Q513 642 483 651.5Q453 661 417 661Q358 661 307.5 642Q257 623 219.5 583.5Q182 544 161 483.5Q140 423 140 340Q140 257 161 196.5Q182 136 219.5 96.5Q257 57 307.5 38Q358 19 417 19Q453 19 483.5 28Q514 37 539.5 49.5Q565 62 585.5 76.5Q606 91 620 102L624 98Z"/></g>
    <g transform="translate(1512 0)"><path d="M98 427Q98 493 95.5 557Q93 621 90 685Q135 683 179.5 681.5Q224 680 269 680Q314 680 358 681.5Q402 683 447 685Q444 670 444 655Q444 640 447 625Q415 627 388.5 629Q362 631 332.5 633Q303 635 268 636.5Q233 638 184 638Q183 606 181.5 577Q180 548 180 511Q180 472 180.5 435Q181 398 181 379Q225 379 260 380Q295 381 324 382.5Q353 384 377.5 385.5Q402 387 424 389Q421 374 421 358Q421 343 424 328Q398 331 363.5 333Q329 335 294.5 335.5Q260 336 229.5 336.5Q199 337 181 337Q181 328 180.5 317.5Q180 307 180 291V192Q180 135 180.5 98Q181 61 182 42Q215 42 252 42Q290 42 326.5 43.5Q363 45 395.5 47.5Q428 50 452 55Q450 48 449.5 39.5Q449 31 449 24Q449 8 452 -2Q407 0 362.5 0Q318 0 272 0Q226 0 181 0Q136 0 90 -2Q93 62 95.5 125.5Q98 189 98 255Z"/></g>
    <g transform="translate(2105 0)"><path d="M237 426Q237 530 234 633Q208 633 179.5 632.5Q151 632 122.5 630.5Q94 629 67.5 627Q41 625 20 622Q25 640 25 654Q25 665 20 685Q86 683 149 681.5Q212 680 278 680Q344 680 407 681.5Q470 683 536 685Q531 665 531 653Q531 640 536 622Q515 625 488.5 627Q462 629 433.5 630.5Q405 632 376.5 632.5Q348 633 322 633Q319 530 319 426V254Q319 188 321.5 124Q324 60 327 -2Q304 0 278 0Q252 0 229 -2Q232 60 234.5 124Q237 188 237 254Z"/></g>
    <use href="#open-a" transform="translate(2785.714 0)"/>
    <g transform="translate(3573.714 0)"><path d="M237 426Q237 530 234 633Q208 633 179.5 632.5Q151 632 122.5 630.5Q94 629 67.5 627Q41 625 20 622Q25 640 25 654Q25 665 20 685Q86 683 149 681.5Q212 680 278 680Q344 680 407 681.5Q470 683 536 685Q531 665 531 653Q531 640 536 622Q515 625 488.5 627Q462 629 433.5 630.5Q405 632 376.5 632.5Q348 633 322 633Q319 530 319 426V254Q319 188 321.5 124Q324 60 327 -2Q304 0 278 0Q252 0 229 -2Q232 60 234.5 124Q237 188 237 254Z"/></g>
    <g transform="translate(4208.714 0)"><path d="M98 427Q98 493 95.5 557Q93 621 90 685Q135 683 179.5 681.5Q224 680 269 680Q314 680 358 681.5Q402 683 447 685Q444 670 444 655Q444 640 447 625Q415 627 388.5 629Q362 631 332.5 633Q303 635 268 636.5Q233 638 184 638Q183 606 181.5 577Q180 548 180 511Q180 472 180.5 435Q181 398 181 379Q225 379 260 380Q295 381 324 382.5Q353 384 377.5 385.5Q402 387 424 389Q421 374 421 358Q421 343 424 328Q398 331 363.5 333Q329 335 294.5 335.5Q260 336 229.5 336.5Q199 337 181 337Q181 328 180.5 317.5Q180 307 180 291V192Q180 135 180.5 98Q181 61 182 42Q215 42 252 42Q290 42 326.5 43.5Q363 45 395.5 47.5Q428 50 452 55Q450 48 449.5 39.5Q449 31 449 24Q449 8 452 -2Q407 0 362.5 0Q318 0 272 0Q226 0 181 0Q136 0 90 -2Q93 62 95.5 125.5Q98 189 98 255Z"/></g></g>
  </defs>
  <g fill="#101010"><use href="#sightline" transform="translate(20 15) scale(.6)"/><use href="#acetate-wordmark" transform="translate(99.75 68.90) scale(.07 -.07)"/></g>
</svg>
